<svg width="192" height="192" viewBox="0 0 192 192" fill="none" xmlns="http://www.w3.org/2000/svg">
  <defs>
    <linearGradient id="iconGradient" x1="0%" y1="0%" x2="100%" y2="100%">
      <stop offset="0%" style="stop-color:#8B5FBF"/>
      <stop offset="50%" style="stop-color:#6366f1"/>
      <stop offset="100%" style="stop-color:#ec4899"/>
    </linearGradient>
    <linearGradient id="checkGradient" x1="0%" y1="0%" x2="100%" y2="100%">
      <stop offset="0%" style="stop-color:#ffffff"/>
      <stop offset="100%" style="stop-color:#f0f0f0"/>
    </linearGradient>
    <filter id="shadow" x="-50%" y="-50%" width="200%" height="200%">
      <feDropShadow dx="0" dy="8" stdDeviation="12" flood-color="rgba(0,0,0,0.3)"/>
    </filter>
  </defs>
  
  <!-- 背景圆形 -->
  <circle cx="96" cy="96" r="88" fill="url(#iconGradient)" filter="url(#shadow)"/>
  
  <!-- 内圈装饰 -->
  <circle cx="96" cy="96" r="76" fill="none" stroke="rgba(255,255,255,0.2)" stroke-width="2"/>
  
  <!-- 主图标 - 对号 -->
  <path d="M64 96 L84 116 L128 72" stroke="url(#checkGradient)" stroke-width="8" stroke-linecap="round" stroke-linejoin="round" fill="none"/>
  
  <!-- 装饰性小星星 -->
  <path d="M134 52 L136 56 L140 54 L138 58 L142 60 L138 62 L140 66 L136 64 L134 68 L132 64 L128 66 L130 62 L126 60 L130 58 L128 54 L132 56 Z" fill="rgba(255,255,255,0.6)"/>
  
  <!-- 花朵装饰 -->
  <circle cx="58" cy="64" r="3" fill="rgba(255,255,255,0.5)"/>
  <circle cx="52" cy="68" r="2" fill="rgba(255,255,255,0.5)"/>
  <circle cx="56" cy="72" r="2" fill="rgba(255,255,255,0.5)"/>
  <circle cx="62" cy="70" r="2" fill="rgba(255,255,255,0.5)"/>
  <circle cx="58" cy="64" r="1" fill="rgba(255,255,255,0.8)"/>
  
  <!-- 时钟装饰 -->
  <circle cx="144" cy="132" r="8" fill="none" stroke="rgba(255,255,255,0.4)" stroke-width="2"/>
  <path d="M144 128 L144 132 L147 135" stroke="rgba(255,255,255,0.6)" stroke-width="1.5" stroke-linecap="round"/>
</svg>